<svg xmlns="http://www.w3.org/2000/svg" xmlns:xlink="http://www.w3.org/1999/xlink" width="1700" zoomAndPan="magnify" viewBox="0 0 1275 299.999988" height="400" preserveAspectRatio="xMidYMid meet" version="1.0"><path fill="#d9d9d9" d="M 124.769531 104.078125 L 158.359375 104.078125 L 128.078125 138.777344 L 158.980469 188.429688 L 126.96875 188.429688 L 109.441406 157.523438 L 94.722656 169.542969 L 94.722656 188.429688 L 67.625 188.429688 L 67.625 104.078125 L 94.722656 104.078125 L 94.722656 140.121094 Z M 124.769531 104.078125 " fill-opacity="1" fill-rule="nonzero"/><path fill="#d9d9d9" d="M 196.621094 96.226562 L 207.890625 79.914062 L 231.554688 79.914062 L 231.804688 80.402344 L 212.183594 96.226562 Z M 222.734375 176.535156 L 193.1875 176.535156 L 189.628906 188.429688 L 161.921875 188.429688 L 192.6875 104.078125 L 224.203125 104.078125 L 254.984375 188.429688 L 226.292969 188.429688 Z M 217.085938 157.648438 L 208.265625 127.617188 L 207.769531 127.617188 L 198.824219 157.648438 Z M 217.085938 157.648438 " fill-opacity="1" fill-rule="nonzero"/><path fill="#d9d9d9" d="M 300.582031 102.597656 C 311.382812 102.597656 320.253906 104.785156 327.195312 109.164062 C 334.148438 113.53125 337.695312 120.015625 337.871094 128.597656 L 337.871094 130.066406 L 312.476562 130.066406 L 312.476562 129.570312 C 312.476562 127.117188 311.582031 125.078125 309.789062 123.449219 C 307.984375 121.804688 305.25 120.996094 301.566406 120.996094 C 297.96875 120.996094 295.222656 121.519531 293.292969 122.589844 C 291.375 123.648438 290.417969 124.953125 290.417969 126.507812 C 290.417969 128.710938 291.726562 130.351562 294.335938 131.410156 C 296.949219 132.480469 301.15625 133.574219 306.964844 134.71875 C 313.746094 136.113281 319.332031 137.570312 323.699219 139.074219 C 328.078125 140.59375 331.898438 143.066406 335.171875 146.488281 C 338.441406 149.921875 340.109375 154.589844 340.195312 160.472656 C 340.195312 170.453125 336.824219 177.84375 330.082031 182.667969 C 323.339844 187.484375 314.320312 189.898438 303.046875 189.898438 C 289.882812 189.898438 279.644531 187.695312 272.328125 183.277344 C 265.011719 178.863281 261.355469 171.0625 261.355469 159.863281 L 286.984375 159.863281 C 286.984375 164.105469 288.078125 166.957031 290.292969 168.386719 C 292.496094 169.816406 295.929688 170.527344 300.582031 170.527344 C 304.015625 170.527344 306.867188 170.164062 309.105469 169.417969 C 311.355469 168.683594 312.476562 167.179688 312.476562 164.890625 C 312.476562 162.851562 311.234375 161.308594 308.746094 160.285156 C 306.242188 159.265625 302.1875 158.183594 296.539062 157.039062 C 289.671875 155.570312 284 154.042969 279.496094 152.4375 C 275.003906 150.84375 271.085938 148.207031 267.726562 144.535156 C 264.378906 140.855469 262.699219 135.863281 262.699219 129.570312 C 262.699219 120.335938 266.28125 113.53125 273.4375 109.164062 C 280.578125 104.785156 289.632812 102.597656 300.582031 102.597656 Z M 300.582031 102.597656 " fill-opacity="1" fill-rule="nonzero"/><path fill="#d9d9d9" d="M 389.109375 102.597656 C 399.90625 102.597656 408.777344 104.785156 415.71875 109.164062 C 422.675781 113.53125 426.21875 120.015625 426.394531 128.597656 L 426.394531 130.066406 L 401 130.066406 L 401 129.570312 C 401 127.117188 400.105469 125.078125 398.3125 123.449219 C 396.511719 121.804688 393.773438 120.996094 390.089844 120.996094 C 386.496094 120.996094 383.746094 121.519531 381.816406 122.589844 C 379.902344 123.648438 378.941406 124.953125 378.941406 126.507812 C 378.941406 128.710938 380.25 130.351562 382.863281 131.410156 C 385.476562 132.480469 389.679688 133.574219 395.488281 134.71875 C 402.269531 136.113281 407.855469 137.570312 412.222656 139.074219 C 416.601562 140.59375 420.421875 143.066406 423.695312 146.488281 C 426.964844 149.921875 428.632812 154.589844 428.722656 160.472656 C 428.722656 170.453125 425.347656 177.84375 418.605469 182.667969 C 411.863281 187.484375 402.84375 189.898438 391.570312 189.898438 C 378.40625 189.898438 368.167969 187.695312 360.851562 183.277344 C 353.539062 178.863281 349.878906 171.0625 349.878906 159.863281 L 375.507812 159.863281 C 375.507812 164.105469 376.605469 166.957031 378.820312 168.386719 C 381.019531 169.816406 384.453125 170.527344 389.109375 170.527344 C 392.542969 170.527344 395.390625 170.164062 397.628906 169.417969 C 399.882812 168.683594 401 167.179688 401 164.890625 C 401 162.851562 399.757812 161.308594 397.269531 160.285156 C 394.769531 159.265625 390.710938 158.183594 385.0625 157.039062 C 378.195312 155.570312 372.523438 154.042969 368.019531 152.4375 C 363.527344 150.84375 359.609375 148.207031 356.25 144.535156 C 352.902344 140.855469 351.222656 135.863281 351.222656 129.570312 C 351.222656 120.335938 354.808594 113.53125 361.960938 109.164062 C 369.101562 104.785156 378.160156 102.597656 389.109375 102.597656 Z M 389.109375 102.597656 " fill-opacity="1" fill-rule="nonzero"/><path fill="#d9d9d9" d="M 443.429688 104.078125 L 470.527344 104.078125 L 470.527344 188.429688 L 443.429688 188.429688 Z M 443.429688 104.078125 " fill-opacity="1" fill-rule="nonzero"/><path fill="#d9d9d9" d="M 531.835938 102.597656 C 546.378906 102.597656 557.625 106.316406 565.550781 113.757812 C 573.476562 121.195312 577.445312 132.03125 577.445312 146.253906 C 577.445312 160.472656 573.476562 171.308594 565.550781 178.738281 C 557.625 186.175781 546.378906 189.898438 531.835938 189.898438 C 517.277344 189.898438 506.066406 186.203125 498.179688 178.800781 C 490.292969 171.410156 486.335938 160.5625 486.335938 146.253906 C 486.335938 131.945312 490.292969 121.097656 498.179688 113.695312 C 506.066406 106.304688 517.277344 102.597656 531.835938 102.597656 Z M 531.835938 122.824219 C 526.023438 122.824219 521.621094 124.59375 518.585938 128.101562 C 515.5625 131.621094 514.054688 136.363281 514.054688 142.320312 L 514.054688 150.171875 C 514.054688 156.144531 515.5625 160.882812 518.585938 164.394531 C 521.621094 167.914062 526.023438 169.667969 531.835938 169.667969 C 537.632812 169.667969 542.074219 167.914062 545.132812 164.394531 C 548.207031 160.882812 549.738281 156.144531 549.738281 150.171875 L 549.738281 142.320312 C 549.738281 136.363281 548.207031 131.621094 545.132812 128.101562 C 542.074219 124.59375 537.632812 122.824219 531.835938 122.824219 Z M 531.835938 122.824219 " fill-opacity="1" fill-rule="nonzero"/><path fill="#d9d9d9" d="M 689.019531 104.078125 C 693.273438 104.078125 697.167969 104.949219 700.726562 106.703125 C 704.285156 108.46875 707.109375 110.933594 709.1875 114.128906 C 711.277344 117.3125 712.320312 120.871094 712.320312 124.792969 C 712.320312 135.167969 707.617188 141.710938 698.210938 144.410156 L 698.210938 144.898438 C 708.925781 147.347656 714.273438 154.378906 714.273438 165.984375 C 714.273438 170.402344 713.191406 174.308594 711.027344 177.703125 C 708.863281 181.089844 705.902344 183.726562 702.144531 185.605469 C 698.375 187.484375 694.257812 188.429688 689.753906 188.429688 L 632.859375 188.429688 L 632.859375 104.078125 Z M 659.957031 136.933594 L 678.59375 136.933594 C 680.394531 136.933594 681.890625 136.300781 683.070312 135.03125 C 684.253906 133.761719 684.851562 132.195312 684.851562 130.316406 L 684.851562 129.085938 C 684.851562 127.28125 684.242188 125.75 683.007812 124.480469 C 681.789062 123.222656 680.308594 122.589844 678.59375 122.589844 L 659.957031 122.589844 Z M 659.957031 168.808594 L 680.558594 168.808594 C 682.363281 168.808594 683.84375 168.175781 685.035156 166.90625 C 686.21875 165.648438 686.816406 164.070312 686.816406 162.191406 L 686.816406 160.957031 C 686.816406 159.082031 686.21875 157.511719 685.035156 156.242188 C 683.84375 154.972656 682.363281 154.339844 680.558594 154.339844 L 659.957031 154.339844 Z M 659.957031 168.808594 " fill-opacity="1" fill-rule="nonzero"/><path fill="#d9d9d9" d="M 782.699219 188.429688 L 779.140625 176.535156 L 749.589844 176.535156 L 746.03125 188.429688 L 718.324219 188.429688 L 749.09375 104.078125 L 780.609375 104.078125 L 811.386719 188.429688 Z M 755.226562 157.648438 L 773.492188 157.648438 L 764.671875 127.617188 L 764.171875 127.617188 Z M 755.226562 157.648438 " fill-opacity="1" fill-rule="nonzero"/><path fill="#d9d9d9" d="M 901.628906 129.941406 C 901.628906 135.09375 900.234375 139.746094 897.460938 143.925781 C 894.671875 148.09375 890.628906 151.15625 885.316406 153.121094 L 904.078125 188.429688 L 873.671875 188.429688 L 858.703125 157.648438 L 848.652344 157.648438 L 848.652344 188.429688 L 821.554688 188.429688 L 821.554688 104.078125 L 873.175781 104.078125 C 879.234375 104.078125 884.394531 105.234375 888.6875 107.558594 C 892.980469 109.898438 896.214844 113.046875 898.378906 117.003906 C 900.546875 120.972656 901.628906 125.277344 901.628906 129.941406 Z M 874.03125 131.050781 C 874.03125 128.835938 873.296875 126.992188 871.832031 125.527344 C 870.363281 124.058594 868.558594 123.324219 866.429688 123.324219 L 848.652344 123.324219 L 848.652344 138.886719 L 866.429688 138.886719 C 868.558594 138.886719 870.363281 138.140625 871.832031 136.625 C 873.296875 135.117188 874.03125 133.25 874.03125 131.050781 Z M 874.03125 131.050781 " fill-opacity="1" fill-rule="nonzero"/><path fill="#d9d9d9" d="M 997.019531 129.941406 C 997.019531 135.09375 995.625 139.746094 992.851562 143.925781 C 990.0625 148.09375 986.019531 151.15625 980.707031 153.121094 L 999.46875 188.429688 L 969.0625 188.429688 L 954.09375 157.648438 L 944.042969 157.648438 L 944.042969 188.429688 L 916.945312 188.429688 L 916.945312 104.078125 L 968.566406 104.078125 C 974.625 104.078125 979.785156 105.234375 984.078125 107.558594 C 988.371094 109.898438 991.605469 113.046875 993.769531 117.003906 C 995.9375 120.972656 997.019531 125.277344 997.019531 129.941406 Z M 969.421875 131.050781 C 969.421875 128.835938 968.6875 126.992188 967.222656 125.527344 C 965.753906 124.058594 963.949219 123.324219 961.820312 123.324219 L 944.042969 123.324219 L 944.042969 138.886719 L 961.820312 138.886719 C 963.949219 138.886719 965.753906 138.140625 967.222656 136.625 C 968.6875 135.117188 969.421875 133.25 969.421875 131.050781 Z M 969.421875 131.050781 " fill-opacity="1" fill-rule="nonzero"/><path fill="#d9d9d9" d="M 1052.191406 102.597656 C 1066.734375 102.597656 1077.984375 106.316406 1085.90625 113.757812 C 1093.832031 121.195312 1097.800781 132.03125 1097.800781 146.253906 C 1097.800781 160.472656 1093.832031 171.308594 1085.90625 178.738281 C 1077.984375 186.175781 1066.734375 189.898438 1052.191406 189.898438 C 1037.636719 189.898438 1026.425781 186.203125 1018.539062 178.800781 C 1010.648438 171.410156 1006.695312 160.5625 1006.695312 146.253906 C 1006.695312 131.945312 1010.648438 121.097656 1018.539062 113.695312 C 1026.425781 106.304688 1037.636719 102.597656 1052.191406 102.597656 Z M 1052.191406 122.824219 C 1046.382812 122.824219 1041.976562 124.59375 1038.941406 128.101562 C 1035.917969 131.621094 1034.414062 136.363281 1034.414062 142.320312 L 1034.414062 150.171875 C 1034.414062 156.144531 1035.917969 160.882812 1038.941406 164.394531 C 1041.976562 167.914062 1046.382812 169.667969 1052.191406 169.667969 C 1057.988281 169.667969 1062.429688 167.914062 1065.492188 164.394531 C 1068.566406 160.882812 1070.09375 156.144531 1070.09375 150.171875 L 1070.09375 142.320312 C 1070.09375 136.363281 1068.566406 131.621094 1065.492188 128.101562 C 1062.429688 124.59375 1057.988281 122.824219 1052.191406 122.824219 Z M 1052.191406 122.824219 " fill-opacity="1" fill-rule="nonzero"/><path fill="#d9d9d9" d="M 1147.820312 102.597656 C 1158.617188 102.597656 1167.488281 104.785156 1174.429688 109.164062 C 1181.386719 113.53125 1184.933594 120.015625 1185.105469 128.597656 L 1185.105469 130.066406 L 1159.714844 130.066406 L 1159.714844 129.570312 C 1159.714844 127.117188 1158.816406 125.078125 1157.027344 123.449219 C 1155.222656 121.804688 1152.484375 120.996094 1148.800781 120.996094 C 1145.207031 120.996094 1142.457031 121.519531 1140.527344 122.589844 C 1138.613281 123.648438 1137.65625 124.953125 1137.65625 126.507812 C 1137.65625 128.710938 1138.960938 130.351562 1141.574219 131.410156 C 1144.1875 132.480469 1148.390625 133.574219 1154.203125 134.71875 C 1160.980469 136.113281 1166.570312 137.570312 1170.933594 139.074219 C 1175.316406 140.59375 1179.132812 143.066406 1182.40625 146.488281 C 1185.679688 149.921875 1187.34375 154.589844 1187.433594 160.472656 C 1187.433594 170.453125 1184.0625 177.84375 1177.316406 182.667969 C 1170.574219 187.484375 1161.554688 189.898438 1150.28125 189.898438 C 1137.121094 189.898438 1126.878906 187.695312 1119.566406 183.277344 C 1112.25 178.863281 1108.589844 171.0625 1108.589844 159.863281 L 1134.222656 159.863281 C 1134.222656 164.105469 1135.316406 166.957031 1137.53125 168.386719 C 1139.730469 169.816406 1143.167969 170.527344 1147.820312 170.527344 C 1151.253906 170.527344 1154.101562 170.164062 1156.339844 169.417969 C 1158.59375 168.683594 1159.714844 167.179688 1159.714844 164.890625 C 1159.714844 162.851562 1158.46875 161.308594 1155.980469 160.285156 C 1153.480469 159.265625 1149.425781 158.183594 1143.777344 157.039062 C 1136.90625 155.570312 1131.234375 154.042969 1126.730469 152.4375 C 1122.238281 150.84375 1118.320312 148.207031 1114.960938 144.535156 C 1111.613281 140.855469 1109.933594 135.863281 1109.933594 129.570312 C 1109.933594 120.335938 1113.519531 113.53125 1120.671875 109.164062 C 1127.8125 104.785156 1136.871094 102.597656 1147.820312 102.597656 Z M 1147.820312 102.597656 " fill-opacity="1" fill-rule="nonzero"/></svg>